<svg xmlns="http://www.w3.org/2000/svg" width="40" height="40" viewBox="0 0 40 40">
    <g fill="none" fill-rule="nonzero">
        <path d="M0 0h40v40H0z"/>
        <path fill="#2B2B2B" d="M30.193 19a1.28 1.28 0 0 1-1.278 1.28H7.277A1.28 1.28 0 0 1 6 19c0-.707.572-1.28 1.277-1.28h21.638A1.28 1.28 0 0 1 30.193 19zm-.278 0l-8.798-8.814c-.5-.5-.5-1.31 0-1.81.499-.501 1.308-.501 1.807-.001l9.702 9.72c.499.5.499 1.31 0 1.81l-9.702 9.72a1.274 1.274 0 0 1-1.807 0c-.5-.5-.5-1.31 0-1.81L29.915 19z"/>
    </g>
</svg>
