<svg xmlns="http://www.w3.org/2000/svg" width="24" height="24" viewBox="0 0 24 24">
    <g fill="none" fill-rule="nonzero">
        <path d="M0 0h24v24H0z"/>
        <path fill="#6C6C6C" d="M19.345 5.392c-1.455-1.452-3.726-1.805-5.58-.868-1.854.937-2.846 2.94-2.44 4.921-3.613-.22-6.967-1.884-9.255-4.593a.11.11 0 0 0-.096-.039.112.112 0 0 0-.087.054c-1.173 1.951-.69 4.437 1.137 5.844a4.618 4.618 0 0 1-1.644-.513.115.115 0 0 0-.109 0 .107.107 0 0 0-.059.102v.057c.007 1.988 1.346 3.742 3.31 4.338a4.683 4.683 0 0 1-1.554-.021.115.115 0 0 0-.106.025.106.106 0 0 0-.034.101c.577 1.754 2.191 3 4.09 3.156a9.281 9.281 0 0 1-5.398 1.698A9.51 9.51 0 0 1 .435 19.6a.115.115 0 0 0-.118.072.106.106 0 0 0 .047.129 13.498 13.498 0 0 0 7.095 2.004c8.265 0 13.2-6.477 13.2-12.741v-.522a9.217 9.217 0 0 0 2.279-2.289.105.105 0 0 0-.014-.125.115.115 0 0 0-.126-.028 9.309 9.309 0 0 1-2.123.6 4.55 4.55 0 0 0 1.657-2.247.106.106 0 0 0-.037-.119.115.115 0 0 0-.128-.007 9.281 9.281 0 0 1-2.822 1.065z"/>
    </g>
</svg>
